<svg width="16" height="16" viewBox="0 0 16 16" fill="none" xmlns="http://www.w3.org/2000/svg">
<path fill-rule="evenodd" clip-rule="evenodd" d="M8.38537 2.72751C5.84183 3.57536 4.00215 5.97493 4.00215 8.79842C4.00215 9.31833 4.06614 9.82224 4.18612 10.3022C4.3141 10.8461 4.50606 11.358 4.77002 11.8299C3.7302 12.4778 2.40244 12.7977 0.802729 12.7977C0.410799 12.7977 0.0748595 12.5178 0.010871 12.1338C-0.0531176 11.7419 0.170842 11.366 0.538776 11.238C0.570771 11.23 1.35463 10.918 1.89853 9.79024C0.698747 8.72643 0.00287241 7.20671 0.00287241 5.599C0.00287241 2.51155 2.51442 0 5.60187 0C7.46553 0 9.17723 0.927834 10.193 2.40757C9.56116 2.42357 8.95327 2.53555 8.38537 2.72751ZM15.4642 14.4418C15.4681 14.4436 15.4708 14.4447 15.4721 14.4454C15.8321 14.5814 16.048 14.9653 15.9841 15.3412C15.9121 15.7172 15.5842 15.9971 15.2002 15.9971C13.1206 15.9971 11.5049 15.4612 10.3931 14.3974C8.2255 14.3894 6.35383 13.1576 5.426 11.358C5.16197 10.8541 4.97 10.2942 4.88202 9.70226C4.82603 9.40631 4.80203 9.11037 4.80203 8.79842C4.80203 6.22288 6.55372 4.04727 8.92929 3.39939C9.39321 3.27141 9.88912 3.19943 10.401 3.19943C10.489 3.19943 10.577 3.19943 10.665 3.21542C13.6324 3.3434 16 5.79896 16 8.79842C16 10.4061 15.3041 11.9339 14.1124 12.9897C14.6335 14.0703 15.3749 14.4019 15.4642 14.4418Z" fill="white"/>
</svg>
